<svg width="16.000000" height="12.000000" viewBox="0 0 16 12" fill="none" xmlns="http://www.w3.org/2000/svg" xmlns:xlink="http://www.w3.org/1999/xlink">
	<desc>
			Created with Pixso.
	</desc>
	<defs/>
	<path id="Vector" d="M0 1C0 0.73 0.1 0.48 0.29 0.29C0.48 0.1 0.73 0 1 0L15 0C15.26 0 15.51 0.1 15.7 0.29C15.89 0.48 16 0.73 16 1C16 1.26 15.89 1.51 15.7 1.7C15.51 1.89 15.26 2 15 2L1 2C0.73 2 0.48 1.89 0.29 1.7C0.1 1.51 0 1.26 0 1ZM0 6C0 5.73 0.1 5.48 0.29 5.29C0.48 5.1 0.73 5 1 5L15 5C15.26 5 15.51 5.1 15.7 5.29C15.89 5.48 16 5.73 16 6C16 6.26 15.89 6.51 15.7 6.7C15.51 6.89 15.26 7 15 7L1 7C0.73 7 0.48 6.89 0.29 6.7C0.1 6.51 0 6.26 0 6ZM0 11C0 10.73 0.1 10.48 0.29 10.29C0.48 10.1 0.73 10 1 10L15 10C15.26 10 15.51 10.1 15.7 10.29C15.89 10.48 16 10.73 16 11C16 11.26 15.89 11.51 15.7 11.7C15.51 11.89 15.26 12 15 12L1 12C0.73 12 0.48 11.89 0.29 11.7C0.1 11.51 0 11.26 0 11Z" fill="#FFFFFF" fill-opacity="1.000000" fill-rule="nonzero"/>
</svg>
