<svg width="20.000000" height="21.000000" viewBox="0 0 20 21" fill="none" xmlns="http://www.w3.org/2000/svg" xmlns:xlink="http://www.w3.org/1999/xlink">
	<desc>
			Created with Pixso.
	</desc>
	<defs/>
	<path id="Vector" d="M1.33 2L5.82 2L7.27 5.61L4.94 7.16C4.8 7.25 4.69 7.38 4.61 7.52C4.54 7.67 4.5 7.83 4.5 8C4.5 8.09 4.5 8 4.5 8L4.5 8.02C4.5 8.06 4.5 8.11 4.5 8.15C4.51 8.23 4.52 8.34 4.54 8.48C4.58 8.75 4.65 9.12 4.8 9.56C5.09 10.44 5.67 11.58 6.79 12.7C7.91 13.82 9.05 14.4 9.93 14.69C10.37 14.84 10.74 14.91 11.01 14.95C11.16 14.98 11.32 14.99 11.47 14.99L11.49 15L11.49 15C11.49 15 11.61 14.99 11.5 15C11.68 14.99 11.86 14.94 12.02 14.85C12.18 14.75 12.31 14.61 12.39 14.44L13.06 13.1L17.5 13.84L17.5 18.16C15.38 18.47 9.68 18.77 5.2 14.29C0.72 9.81 1.02 4.11 1.33 2ZM6.57 8.48L8.38 7.28C8.76 7.02 9.04 6.64 9.18 6.21C9.31 5.77 9.29 5.3 9.12 4.87L7.68 1.25C7.53 0.88 7.27 0.56 6.94 0.34C6.61 0.11 6.22 -3.06e-5 5.82 0L1.28 0C0.37 0 -0.49 0.63 -0.64 1.61C-0.98 3.85 -1.44 10.48 3.79 15.7C9.01 20.93 15.64 20.47 17.88 20.13C18.86 19.98 19.5 19.12 19.5 18.21L19.5 13.84C19.5 13.37 19.33 12.91 19.02 12.55C18.72 12.19 18.29 11.95 17.82 11.87L13.39 11.13C12.97 11.06 12.53 11.13 12.15 11.32C11.77 11.51 11.46 11.83 11.27 12.21L10.92 12.9C10.8 12.87 10.68 12.84 10.56 12.8C9.94 12.59 9.08 12.17 8.2 11.29C7.32 10.41 6.9 9.55 6.69 8.93C6.64 8.78 6.6 8.63 6.57 8.48L6.57 8.48Z" fill="#FFFFFF" fill-opacity="1.000000" fill-rule="nonzero"/>
</svg>
