<svg width="19.000000" height="18.000000" viewBox="0 0 19 18" fill="none" xmlns="http://www.w3.org/2000/svg" xmlns:xlink="http://www.w3.org/1999/xlink">
	<desc>
			Created with Pixso.
	</desc>
	<defs/>
	<path id="Vector" d="M12 16C11.73 16 11.48 16.1 11.29 16.29C11.1 16.48 11 16.73 11 17C11 17.26 11.1 17.51 11.29 17.7C11.48 17.89 11.73 18 12 18L17 18C17.53 18 18.03 17.78 18.41 17.41C18.78 17.03 19 16.53 19 16L19 2C19 1.46 18.78 0.96 18.41 0.58C18.03 0.21 17.53 0 17 0L12 0C11.73 0 11.48 0.1 11.29 0.29C11.1 0.48 11 0.73 11 1C11 1.26 11.1 1.51 11.29 1.7C11.48 1.89 11.73 2 12 2L17 2L17 16L12 16Z" fill="#FFFFFF" fill-opacity="1.000000" fill-rule="nonzero"/>
	<path id="Vector" d="M13.71 9.7C13.89 9.51 13.99 9.26 14 9L14 8.99C13.99 8.73 13.89 8.47 13.7 8.29L9.7 4.29C9.61 4.19 9.5 4.12 9.38 4.06C9.26 4.01 9.12 3.98 8.99 3.98C8.86 3.98 8.73 4.01 8.6 4.06C8.48 4.11 8.37 4.18 8.28 4.28C8.18 4.37 8.11 4.48 8.06 4.6C8.01 4.73 7.98 4.86 7.98 4.99C7.98 5.12 8.01 5.26 8.06 5.38C8.12 5.5 8.19 5.61 8.29 5.7L10.58 8L1 8C0.73 8 0.48 8.1 0.29 8.29C0.1 8.48 0 8.73 0 9C0 9.26 0.1 9.51 0.29 9.7C0.48 9.89 0.73 10 1 10L10.58 10L8.29 12.29C8.19 12.38 8.12 12.49 8.06 12.61C8.01 12.73 7.98 12.87 7.98 13C7.98 13.13 8.01 13.26 8.06 13.39C8.11 13.51 8.18 13.62 8.28 13.71C8.37 13.81 8.48 13.88 8.6 13.93C8.73 13.98 8.86 14.01 8.99 14.01C9.12 14.01 9.26 13.98 9.38 13.93C9.5 13.87 9.61 13.8 9.7 13.7L13.7 9.7L13.71 9.7Z" fill="#FFFFFF" fill-opacity="1.000000" fill-rule="nonzero"/>
</svg>
